<?xml version="1.0" standalone="no"?>
<!DOCTYPE svg PUBLIC "-//W3C//DTD SVG 20010904//EN"
 "http://www.w3.org/TR/2001/REC-SVG-20010904/DTD/svg10.dtd">
<svg version="1.0" xmlns="http://www.w3.org/2000/svg"
 width="48.000000pt" height="48.000000pt" viewBox="0 0 48.000000 48.000000"
 preserveAspectRatio="xMidYMid meet">

<g transform="translate(0.000000,48.000000) scale(0.100000,-0.100000)"
fill="#000000" stroke="none">
<path d="M128 338 c-94 -86 -100 -93 -75 -96 l27 -3 0 -90 0 -89 60 0 60 0 0
60 0 60 40 0 40 0 0 -60 0 -60 60 0 60 0 0 90 0 90 27 0 27 0 -37 38 c-31 31
-37 45 -37 80 0 35 -3 42 -20 42 -15 0 -20 -7 -20 -27 l0 -27 -43 42 c-23 23
-48 42 -55 42 -7 0 -58 -42 -114 -92z m173 -9 l59 -51 0 -89 c0 -82 -1 -89
-20 -89 -18 0 -20 7 -20 60 l0 60 -80 0 -80 0 0 -60 c0 -53 -2 -60 -20 -60
-18 0 -20 7 -20 88 l-1 87 58 52 c32 29 60 53 62 53 2 0 30 -23 62 -51z"/>
</g>
</svg>
